# xmcd
#
# Track frame offsets: 
#        187
#        12107
#        23535
#        34677
#        49260
#        62252
#        72960
#        87415
#        101207
#        109587
#        138620
#        149627
#        161042
#        174650
#        187645
#
# Disc length: 2681 seconds
#
# Revision: 3
# Processed by: cddbd v1.5.2PL0 Copyright (c) Steve Scherf et al.
# Submitted via: ExactAudioCopy v0.99pb5
#
DISCID=c70a770f
DTITLE=Various Artist - Atlantic Soul Classics
DYEAR=1985
DGENRE=
TTITLE0=Sam and Dave - Soul Man
TTITLE1=Wilson Pickett - In The Midnight Hour
TTITLE2=Aretha Franklin - Respect
TTITLE3=Otis Redding - I've Been Loving You Too Long (To Stop Now)
TTITLE4=Booker T. and The MG's - Green Onions
TTITLE5=Arthur Conley - Sweet Soul Music
TTITLE6=Archie Bell and The Drells - Tighten Up
TTITLE7=The Drifters - On Broadway
TTITLE8=The Coasters - Yakety Yak
TTITLE9=Ray Charles - What'd I Say
TTITLE10=Doris Troy - Just One Look
TTITLE11=Barbara Lewis - Make Me Your Baby
TTITLE12=Ben E. King - Stand By Me
TTITLE13=Percy Sledge - When A Man Loves A Woman
TTITLE14=Joe Turner - Shake, Rattle and Roll
EXTD=
EXTT0=
EXTT1=
EXTT2=
EXTT3=
EXTT4=
EXTT5=
EXTT6=
EXTT7=
EXTT8=
EXTT9=
EXTT10=
EXTT11=
EXTT12=
EXTT13=
EXTT14=
PLAYORDER=
